<svg width="120" height="28" viewBox="0 0 120 28" fill="none" xmlns="http://www.w3.org/2000/svg">
<path d="M7.88672 22.2871C6.41927 22.2871 5.08398 22.123 3.88086 21.7949C2.67773 21.4668 1.49284 20.8971 0.326172 20.0859V15.2734H3.41602L3.83984 18.1035C4.24089 18.4499 4.80143 18.7324 5.52148 18.9512C6.25065 19.1608 7.03906 19.2656 7.88672 19.2656C8.97135 19.2656 9.80078 19.0469 10.375 18.6094C10.9492 18.1628 11.2363 17.5612 11.2363 16.8047C11.2363 16.0938 10.9629 15.4967 10.416 15.0137C9.87826 14.5215 8.93034 14.0658 7.57227 13.6465C5.21159 12.9629 3.45247 12.1517 2.29492 11.2129C1.13737 10.2741 0.558594 8.98893 0.558594 7.35742C0.558594 6.2819 0.854818 5.33398 1.44727 4.51367C2.04883 3.68424 2.87826 3.03255 3.93555 2.55859C4.99284 2.08464 6.21419 1.83854 7.59961 1.82031C9.13086 1.80208 10.4844 1.98438 11.6602 2.36719C12.8451 2.75 13.8659 3.2832 14.7227 3.9668V8.45117H11.7285L11.209 5.7168C10.8626 5.49805 10.3932 5.30664 9.80078 5.14258C9.21745 4.97852 8.55208 4.89648 7.80469 4.89648C6.84766 4.89648 6.0638 5.11068 5.45312 5.53906C4.84245 5.96745 4.53711 6.56901 4.53711 7.34375C4.53711 8.00911 4.81966 8.5651 5.38477 9.01172C5.95898 9.44922 7.01172 9.91406 8.54297 10.4062C10.7396 11.0169 12.403 11.8236 13.5332 12.8262C14.6725 13.8288 15.2422 15.1458 15.2422 16.7773C15.2422 17.9167 14.9368 18.8965 14.3262 19.7168C13.7155 20.5371 12.8542 21.1706 11.7422 21.6172C10.6393 22.0638 9.35417 22.2871 7.88672 22.2871ZM16.8281 27.6875V25.2812L18.7559 24.8711V10.0234L16.623 9.61328V7.20703H22.4199L22.6113 8.92969C23.0488 8.29167 23.5775 7.79948 24.1973 7.45312C24.8171 7.10677 25.5553 6.93359 26.4121 6.93359C27.6061 6.93359 28.627 7.26172 29.4746 7.91797C30.3223 8.5651 30.9694 9.47201 31.416 10.6387C31.8717 11.8053 32.0996 13.168 32.0996 14.7266V15.0137C32.0996 16.472 31.8717 17.748 31.416 18.8418C30.9603 19.9264 30.304 20.7741 29.4473 21.3848C28.5996 21.9863 27.5788 22.2871 26.3848 22.2871C24.8262 22.2871 23.6094 21.722 22.7344 20.5918V24.8711L24.6621 25.2812V27.6875H16.8281ZM25.1953 19.2246C26.2161 19.2246 26.9544 18.8464 27.4102 18.0898C27.875 17.3333 28.1074 16.3079 28.1074 15.0137V14.7266C28.1074 13.332 27.8704 12.2018 27.3965 11.3359C26.9225 10.4701 26.1797 10.0371 25.168 10.0371C24.056 10.0371 23.2448 10.5111 22.7344 11.459V17.9395C23.2357 18.7962 24.056 19.2246 25.1953 19.2246ZM33.3848 22V19.6074L35.3125 19.1973V3.48828L33.1797 3.07812V0.671875H39.3047V19.1973L41.2324 19.6074V22H33.3848ZM42.4219 22V19.6074L44.3496 19.1973V10.0234L42.2168 9.61328V7.20703H48.3418V19.1973L50.2559 19.6074V22H42.4219ZM44.2129 4.07617V0.671875H48.3418V4.07617H44.2129ZM57.4062 22.2871C56.0299 22.2871 54.9681 21.9089 54.2207 21.1523C53.4824 20.3958 53.1133 19.1973 53.1133 17.5566V10.0098H51.0762V7.20703H53.1133V3.58398H57.0918V7.20703H59.8125V10.0098H57.0918V17.543C57.0918 18.1172 57.2103 18.5273 57.4473 18.7734C57.6934 19.0195 58.026 19.1426 58.4453 19.1426C58.6641 19.1426 58.901 19.1289 59.1562 19.1016C59.4115 19.0651 59.6302 19.0286 59.8125 18.9922L60.1543 21.877C59.7533 21.9954 59.3112 22.0911 58.8281 22.1641C58.3451 22.2461 57.8711 22.2871 57.4062 22.2871ZM61.5625 22V19.6074L63.6816 19.1973V4.91016L61.5625 4.5V2.09375H70.4082C72.7507 2.09375 74.5781 2.54948 75.8906 3.46094C77.2031 4.3724 77.8594 5.73503 77.8594 7.54883C77.8594 8.4694 77.6133 9.29427 77.1211 10.0234C76.638 10.7435 75.9316 11.2858 75.002 11.6504C76.196 11.9056 77.0892 12.4525 77.6816 13.291C78.2832 14.1296 78.584 15.1003 78.584 16.2031C78.584 18.1081 77.9551 19.5527 76.6973 20.5371C75.4395 21.5124 73.6576 22 71.3516 22H61.5625ZM67.6738 10.4336H70.5449C71.6113 10.4336 72.4316 10.2148 73.0059 9.77734C73.5801 9.33984 73.8672 8.70182 73.8672 7.86328C73.8672 6.06771 72.7142 5.16992 70.4082 5.16992H67.6738V10.4336ZM67.6738 18.9375H71.3516C73.5208 18.9375 74.6055 18.026 74.6055 16.2031C74.6055 15.2279 74.3685 14.485 73.8945 13.9746C73.4206 13.4551 72.6732 13.1953 71.6523 13.1953H67.6738V18.9375ZM79.9102 22V19.6074L81.8379 19.1973V10.0234L79.7051 9.61328V7.20703H85.8301V19.1973L87.7441 19.6074V22H79.9102ZM81.7012 4.07617V0.671875H85.8301V4.07617H81.7012ZM88.8652 22V19.6074L90.793 19.1973V3.48828L88.6602 3.07812V0.671875H94.7852V19.1973L96.7129 19.6074V22H88.8652ZM97.8066 22V19.6074L99.7344 19.1973V3.48828L97.6016 3.07812V0.671875H103.727V19.1973L105.654 19.6074V22H97.8066ZM113.311 22.2871C112.208 22.2871 111.178 22.1823 110.221 21.9727C109.273 21.763 108.361 21.4622 107.486 21.0703L107.445 16.8867H110.221L110.754 19.0195C111.064 19.1745 111.401 19.2975 111.766 19.3887C112.139 19.4798 112.563 19.5254 113.037 19.5254C113.93 19.5254 114.559 19.3796 114.924 19.0879C115.288 18.7962 115.471 18.4316 115.471 17.9941C115.471 17.584 115.275 17.224 114.883 16.9141C114.491 16.5951 113.721 16.3171 112.572 16.0801C110.813 15.7155 109.519 15.1504 108.689 14.3848C107.869 13.6191 107.459 12.6393 107.459 11.4453C107.459 10.6341 107.664 9.88672 108.074 9.20312C108.493 8.51953 109.127 7.97721 109.975 7.57617C110.831 7.16602 111.925 6.96094 113.256 6.96094C114.368 6.96094 115.384 7.07031 116.305 7.28906C117.234 7.4987 118.014 7.77669 118.643 8.12305L118.684 12.1699H115.922L115.498 10.2285C114.969 9.86393 114.304 9.68164 113.502 9.68164C112.809 9.68164 112.271 9.82747 111.889 10.1191C111.515 10.4017 111.328 10.7617 111.328 11.1992C111.328 11.582 111.492 11.9284 111.82 12.2383C112.158 12.5391 112.891 12.8171 114.021 13.0723C115.854 13.4915 117.189 14.0521 118.027 14.7539C118.866 15.4466 119.285 16.4219 119.285 17.6797C119.285 19.056 118.784 20.168 117.781 21.0156C116.788 21.8633 115.298 22.2871 113.311 22.2871Z" fill="#161616"/>
</svg>
