<svg width="658" height="700" viewBox="0 0 658 700" fill="none" xmlns="http://www.w3.org/2000/svg">
<path d="M561.648 560.342C690.132 432.155 690.132 224.324 561.648 96.1379C433.163 -32.0483 224.849 -32.0483 96.3644 96.1379C-32.1201 224.324 -32.1201 432.155 96.3644 560.342C224.849 688.528 433.163 688.528 561.648 560.342Z" fill="#848EE7" fill-opacity="0.2"/>
<path d="M329.008 647.679C479.758 647.679 601.965 525.755 601.965 375.355C601.965 224.955 479.758 103.032 329.008 103.032C178.258 103.032 56.0511 224.955 56.0511 375.355C56.0511 525.755 178.258 647.679 329.008 647.679Z" fill="#848EE7" fill-opacity="0.2"/>
<path d="M329.008 625.767C436.081 625.767 522.881 539.169 522.881 432.345C522.881 325.52 436.081 238.922 329.008 238.922C221.935 238.922 135.136 325.52 135.136 432.345C135.136 539.169 221.935 625.767 329.008 625.767Z" fill="#848EE7" fill-opacity="0.2"/>
</svg>
